# xmcd
#
# Track frame offsets:
#	182
#	12105
#	25157
#	37832
#	48957
#	62732
#	75855
#	91510
#	104237
#	118427
#	134495
#	165420
#	182867
#	201115
#	236680
#	253992
#	273347
#	297667
#	315332
#	333345
#
# Disc length: 4683
#
# Revision: 3
# Processed by: cddbd v1.5.1PL0 Copyright (c) Steve Scherf et al.
# Submitted via: EasyCD 2.21 - (C) 1996 Greg Leichner
# Normalized: r1:TDELIM( - ),TSWAP
#
DISCID=16124914
DTITLE=Motown in Motion - Various Artists - 20 Classic Motown Dance Hits
DYEAR=1900
DGENRE=
TTITLE0=Martha Reeves and The Vandellas - Dancin in the Street
TTITLE1=Stevie Wonder - Uptight
TTITLE2=Four Tops - Its The Same Old Song
TTITLE3=Jr Walker - What does it Take (To Win Your Love)
TTITLE4=Supremes - Nathan Jones
TTITLE5=Marvin Gaye - Too Busy Thinking About My Baby
TTITLE6=Eddie Kendricks - Keep on Truckin'
TTITLE7=The Supremes - Floy Joy
TTITLE8=Jackson 5 - Skywriter
TTITLE9=Jermaine Jackson - Let's Get Serious
TTITLE10=Temptations - Papa Was a Rollin' Stone
TTITLE11=Mary Jane Girls - All Night Long
TTITLE12=Dennis Edwards - Don't Look Any Further
TTITLE13=Diana Ross - Love Hangover
TTITLE14=Rockwell - Somebody's Watching Me
TTITLE15=Lionel Richie - All Night Long
TTITLE16=Diana Ross - I'm Coming Out
TTITLE17=Rick James - Give It To Me Baby
TTITLE18=Teena Marie - Behind The Groove
TTITLE19=Dazz Band - Let It All Blow
EXTD=
EXTT0=
EXTT1=
EXTT2=
EXTT3=
EXTT4=
EXTT5=
EXTT6=
EXTT7=
EXTT8=
EXTT9=
EXTT10=
EXTT11=
EXTT12=
EXTT13=
EXTT14=
EXTT15=
EXTT16=
EXTT17=
EXTT18=
EXTT19=
PLAYORDER=
